<?xml version="1.0" encoding="UTF-8"?>
<svg version="1.1" xmlns="http://www.w3.org/2000/svg" width="917" height="459">
<path d="M0 0 C10.54363465 7.04811302 16.25633453 16.02337417 19.13671875 28.3046875 C19.67946459 33.71332858 19.67870494 39.08339215 19.64465332 44.51086426 C19.64927011 46.12547125 19.65562823 47.74007404 19.6635623 49.35466814 C19.68017199 53.76251993 19.67204758 58.17002277 19.65961742 62.57787538 C19.65053482 67.34278805 19.66455253 72.1076424 19.67553711 76.87254333 C19.69329273 86.19554995 19.68949553 95.51842752 19.67788655 104.84143913 C19.66884085 112.42067577 19.66763314 119.99987633 19.67198181 127.57911682 C19.67259474 128.65919251 19.67320768 129.7392682 19.67383918 130.85207346 C19.67511813 133.04645329 19.67641498 135.2408331 19.67772955 137.43521291 C19.68912669 157.99594533 19.67603522 178.55660633 19.65452808 199.11732703 C19.6366579 216.74671081 19.63976225 234.37598922 19.65820312 252.00537109 C19.67962513 272.49419307 19.68802813 292.9829525 19.67575407 313.47178411 C19.67447992 315.65794213 19.67322243 317.84410015 19.67198181 320.03025818 C19.67136471 321.1057969 19.67074761 322.18133561 19.67011181 323.28946641 C19.6666629 330.8566943 19.67247734 338.4238824 19.68190002 345.99110413 C19.69313615 355.21719252 19.69004601 364.44314484 19.66877705 373.66921771 C19.65828839 378.37353287 19.65410748 383.07762142 19.66737366 387.78193474 C19.67934873 392.0937274 19.67265129 396.40508477 19.65146345 400.7168383 C19.64701896 402.27118724 19.64921487 403.82557343 19.6589666 405.37989813 C19.74645345 420.49114842 16.80715933 431.21174664 6.29296875 442.23828125 C-3.07047918 451.16041913 -13.71980444 453.64677276 -26.296875 453.515625 C-37.52879199 452.8513057 -47.68626228 447.40449605 -55.3359375 439.21484375 C-64.02842081 428.34368176 -65.30762513 416.88871695 -65.2509613 403.45927429 C-65.25513793 401.8472584 -65.26061725 400.23524544 -65.26728112 398.62323791 C-65.28171148 394.20866512 -65.27749853 389.79427941 -65.2701143 385.37969649 C-65.26537892 380.61269171 -65.27789582 375.84572718 -65.28813171 371.07873535 C-65.30531827 361.74531389 -65.30615995 352.41195976 -65.30091881 343.07852658 C-65.29687531 335.49064075 -65.29832282 327.90277479 -65.30366707 320.31488991 C-65.30441549 319.23440775 -65.30516391 318.15392559 -65.30593501 317.04070154 C-65.30746651 314.84559712 -65.30900486 312.6504927 -65.31054998 310.45538829 C-65.32427472 289.87465436 -65.3188377 269.29395846 -65.30736477 248.7132254 C-65.2974343 229.89457474 -65.31036991 211.07602243 -65.33429896 192.25738695 C-65.35869593 172.92478169 -65.36829624 153.59222223 -65.36164623 134.25960189 C-65.35815511 123.40969439 -65.360379 112.55986251 -65.37789726 101.70996666 C-65.39262676 92.47283295 -65.39324494 83.23582809 -65.37582635 73.99869689 C-65.36731984 69.28832221 -65.36515827 64.57817764 -65.38047791 59.86781502 C-65.39434549 55.55035907 -65.38953534 51.23332993 -65.37023867 46.91589854 C-65.36648467 45.35943799 -65.36938326 43.80294309 -65.37985032 42.24651321 C-65.46988211 27.82617272 -62.79463695 16.17943623 -52.86328125 5.3046875 C-38.06000232 -7.90288143 -17.04801487 -10.09391331 0 0 Z " fill="#000000" transform="translate(314.86328125,5.6953125)"/>
<path d="M0 0 C10.268666 6.29536308 16.24448689 15.2598608 19.58203125 26.6796875 C19.83503091 29.93856066 19.83503091 29.93856066 19.83930016 33.54049206 C19.84280623 34.20933879 19.8463123 34.87818553 19.84992462 35.56730035 C19.85922217 37.80660296 19.85431963 40.04564457 19.84945679 42.28495789 C19.85319389 43.90747009 19.85779565 45.5299805 19.86318743 47.15248805 C19.87542563 51.60993594 19.87515599 56.06730881 19.87279868 60.52476966 C19.87239072 65.33270226 19.88342778 70.14061073 19.89291382 74.9485321 C19.90952976 84.36824197 19.91502365 93.7879268 19.91613857 103.20765009 C19.91708886 110.86521632 19.92119816 118.52277429 19.92753983 126.18033791 C19.94515458 147.89215711 19.95437844 169.60395653 19.95287888 191.31578293 C19.95279897 192.48637681 19.95271905 193.65697069 19.95263672 194.86303711 C19.95255496 196.03506091 19.9524732 197.2070847 19.95238896 198.41462437 C19.9515762 217.40550053 19.97071072 236.39629734 19.99891345 255.38715055 C20.02764498 274.88802327 20.04145357 294.38885731 20.0397259 313.88975173 C20.03906205 324.83748684 20.0445522 335.7851388 20.066082 346.73285484 C20.0842974 356.0549899 20.08863822 365.37700412 20.07506315 374.69914927 C20.06853509 379.45393896 20.06841049 384.20849685 20.08576965 388.96326447 C20.10151268 393.32025482 20.09862421 397.67682982 20.08120139 402.03381012 C20.07813418 403.60582333 20.08175335 405.17786763 20.09292154 406.74984416 C20.18783165 421.06252148 17.30226585 431.84760631 7.58203125 442.6796875 C-1.78070445 451.30620809 -13.44048733 454.48102021 -25.99609375 454.0625 C-38.0115787 452.71830191 -48.1890278 447.19874796 -55.8515625 437.8828125 C-63.87726472 426.59479243 -64.7151955 415.5215276 -64.68539429 402.1131134 C-64.68913352 400.51917404 -64.69373613 398.92523651 -64.69912493 397.33130187 C-64.71133673 392.96204445 -64.71109661 388.5928637 -64.70873618 384.22359312 C-64.70832755 379.50700097 -64.7193716 374.79043326 -64.72885132 370.07385254 C-64.74545257 360.83689532 -64.75096048 351.59996363 -64.75207607 342.36299274 C-64.75302701 334.8528027 -64.75713959 327.34262108 -64.76347733 319.8324337 C-64.78108774 298.52992475 -64.79031657 277.22743593 -64.78881638 255.92491964 C-64.78873647 254.77689098 -64.78865655 253.62886233 -64.78857422 252.44604492 C-64.78849246 251.29661105 -64.7884107 250.14717718 -64.78832646 248.96291199 C-64.78751373 230.33887218 -64.80664864 211.71491329 -64.83485095 193.09089688 C-64.86359423 173.95833512 -64.87739043 154.8258128 -64.8756634 135.6932289 C-64.87499997 124.9556106 -64.88047147 114.21807711 -64.9020195 103.48047829 C-64.92025033 94.33741143 -64.92456303 85.19446781 -64.91100065 76.05139063 C-64.90448049 71.3894998 -64.90431935 66.7278453 -64.92170715 62.0659771 C-64.93748518 57.79161164 -64.93452626 53.51766896 -64.91713889 49.24331351 C-64.91407936 47.70362572 -64.9176616 46.16390599 -64.92885904 44.62425587 C-65.02703635 30.15747141 -62.62166499 17.20300827 -52.3125 6.4921875 C-47.77537533 2.24400193 -43.21856324 -1.05392935 -37.41796875 -3.3203125 C-36.52851562 -3.67609375 -35.6390625 -4.031875 -34.72265625 -4.3984375 C-22.98668588 -7.67230157 -10.5323588 -5.7511103 0 0 Z " fill="#000000" transform="translate(647.41796875,5.3203125)"/>
<path d="M0 0 C9.28095498 6.81171008 15.78383707 15.94936693 18.1875 27.3125 C18.27708186 28.85000864 18.31653139 30.3908645 18.31892776 31.93097878 C18.32276891 32.8593592 18.32661005 33.78773963 18.3305676 34.7442528 C18.32970112 35.76077248 18.32883463 36.77729217 18.32794189 37.82461548 C18.33091302 38.90720245 18.33388414 39.98978942 18.3369453 41.10518205 C18.34564099 44.7454221 18.34714129 48.38562929 18.34863281 52.02587891 C18.35326041 54.63090078 18.35828499 57.23592198 18.36367798 59.84094238 C18.37725631 66.92792608 18.3832855 74.01490413 18.38768864 81.10189867 C18.39045242 85.52894619 18.39469008 89.95599152 18.39919281 94.38303757 C18.41138581 106.64508489 18.42168442 118.90713047 18.4250679 131.16918373 C18.42539725 132.34627646 18.42539725 132.34627646 18.42573325 133.54714885 C18.42606067 134.7270326 18.42606067 134.7270326 18.4263947 135.9307524 C18.42683816 137.52463571 18.42728473 139.11851903 18.42773438 140.71240234 C18.4279558 141.50302076 18.42817723 142.29363918 18.42840537 143.10821573 C18.43235113 155.91142102 18.4497982 168.71456932 18.4730939 181.5177526 C18.4968293 194.66901411 18.50927078 207.82024705 18.51043582 220.97153032 C18.51135146 228.35283345 18.51707545 235.73406236 18.53525543 243.115345 C18.55230202 250.06087693 18.55389265 257.006266 18.54511642 263.95181274 C18.5443459 266.49868522 18.54869081 269.04556526 18.55857468 271.59241867 C18.5712939 275.07460726 18.56541691 278.55629729 18.55499268 282.03848267 C18.56707728 283.5431857 18.56707728 283.5431857 18.57940602 285.07828677 C18.49429954 297.27020001 14.47750123 307.25120898 6.33984375 316.38671875 C-3.74926149 325.93718593 -15.4098312 327.87296449 -28.703125 327.65234375 C-38.89782974 327.2023577 -47.62861956 322.44122589 -54.8125 315.3125 C-61.40350789 307.3339115 -65.92318234 299.10469571 -65.94672108 288.57376671 C-65.95117892 287.64401193 -65.95563676 286.71425715 -65.96022969 285.75632799 C-65.96004533 284.74340326 -65.95986097 283.73047854 -65.95967102 282.68685913 C-65.96334771 281.6041233 -65.9670244 280.52138747 -65.9708125 279.40584147 C-65.98184181 275.77104447 -65.98569192 272.13627607 -65.98950195 268.50146484 C-65.99576715 265.89791778 -66.002414 263.29437161 -66.00941467 260.69082642 C-66.02915102 252.87373617 -66.0392414 245.05664468 -66.04814246 237.23953575 C-66.05252973 233.55503088 -66.05789538 229.87052745 -66.06313133 226.18602371 C-66.08014028 213.93251786 -66.09463368 201.67901289 -66.10188007 189.42549706 C-66.10378985 186.24769464 -66.1057102 183.06989223 -66.10766602 179.89208984 C-66.10839163 178.70740393 -66.10839163 178.70740393 -66.1091319 177.49878497 C-66.11742942 164.70923339 -66.14276313 151.91977541 -66.17524669 139.13026468 C-66.20835029 125.9891372 -66.22633179 112.84805723 -66.22952431 99.70688784 C-66.23168629 92.33280607 -66.24038905 84.95886084 -66.26598549 77.58481979 C-66.29001683 70.64580837 -66.29349749 63.70704603 -66.28322411 56.76800156 C-66.28272875 54.22476892 -66.28904896 51.68152417 -66.30278015 49.13832855 C-66.32051284 45.65860715 -66.31338507 42.17976537 -66.30024719 38.70004272 C-66.31121644 37.70050233 -66.32218568 36.70096194 -66.33348733 35.67113245 C-66.22648376 23.88199639 -61.73741502 13.82637277 -53.84765625 5.15234375 C-39.20552404 -9.01319103 -17.19767013 -10.60818484 0 0 Z " fill="#000000" transform="translate(190.8125,68.6875)"/>
<path d="M0 0 C7.5773315 6.0375529 13.02324046 14.42615206 15 24 C15.09050518 25.55218667 15.13078649 27.10771834 15.13422108 28.66253757 C15.13867892 29.60075149 15.14313676 30.53896541 15.14772969 31.50561005 C15.14754533 32.53312046 15.14736097 33.56063087 15.14717102 34.61927795 C15.15084771 35.71341001 15.1545244 36.80754207 15.1583125 37.93482965 C15.16935688 41.61419128 15.17319449 45.29352466 15.17700195 48.97290039 C15.18326606 51.60585622 15.18991282 54.23881116 15.19691467 56.87176514 C15.21666569 64.78271109 15.22674405 72.6936583 15.23564246 80.60462275 C15.24002803 84.33246437 15.24539419 88.06030457 15.25063133 91.78814507 C15.26764307 104.18486899 15.28213609 116.58159204 15.28938007 128.97832584 C15.29128989 132.19445357 15.29321023 135.41058129 15.29516602 138.62670898 C15.29564976 139.42603694 15.2961335 140.22536489 15.2966319 141.0489149 C15.3049279 153.99049293 15.33025777 166.9319784 15.36274669 179.87351603 C15.39584952 193.16829353 15.41383179 206.46302404 15.41702431 219.75784296 C15.41918655 227.21912942 15.42789294 234.68028095 15.45348549 242.14152718 C15.47523669 248.49746685 15.48322133 254.85323881 15.47351871 261.20921148 C15.46898653 264.44915311 15.47299713 267.68867829 15.49028015 270.92858696 C15.50800986 274.44995958 15.50088645 277.97046273 15.48774719 281.49183655 C15.49871644 282.5037319 15.50968568 283.51562726 15.52098733 284.55818611 C15.41040893 296.88379406 10.79965021 305.95979613 2.34375 314.71484375 C-7.62539292 323.95511066 -18.2200722 325.47748832 -31.2109375 325.27734375 C-43.0513067 324.81306084 -51.38170019 319.04393589 -59.25 310.625 C-67.60138032 300.83259719 -69.309217 290.6861429 -69.26069641 278.08988953 C-69.26452196 277.02485933 -69.26834751 275.95982913 -69.27228898 274.86252528 C-69.28256662 271.31153819 -69.27863675 267.76071437 -69.2746582 264.2097168 C-69.27900759 261.65646211 -69.28419149 259.10320873 -69.29014587 256.54995728 C-69.30213507 250.3447884 -69.30469012 244.13967921 -69.30234561 237.93450101 C-69.30055892 232.88761689 -69.3023196 227.84074586 -69.30657005 222.7938633 C-69.30716524 222.0741781 -69.30776043 221.3544929 -69.30837366 220.61299906 C-69.30958547 219.15070464 -69.31079961 217.68841022 -69.31201603 216.2261158 C-69.32288072 202.52695313 -69.32073427 188.82781511 -69.31463119 175.12865106 C-69.3094641 162.61487044 -69.32071386 150.10116771 -69.33972941 137.58740249 C-69.35913374 124.71847104 -69.36735919 111.84957639 -69.36360615 98.98063022 C-69.3616979 91.76366379 -69.36414482 84.54676363 -69.37832069 77.32980919 C-69.39152138 70.54095819 -69.38893931 63.75228783 -69.37590981 56.9634285 C-69.37354799 54.47705978 -69.37626447 51.99068005 -69.38453293 49.50432396 C-69.39503538 46.09972412 -69.3868712 42.69564309 -69.3742218 39.2910614 C-69.38159609 38.31661707 -69.38897037 37.34217274 -69.39656812 36.33819979 C-69.29665065 23.47845426 -65.85594237 12.52446787 -57.1171875 2.93359375 C-40.94285651 -12.22574886 -17.67985876 -12.91423959 0 0 Z " fill="#000000" transform="translate(777,71)"/>
<path d="M0 0 C8.52875547 7.05289761 13.43991882 15.52899596 15.72265625 26.31640625 C16.15067214 31.4341476 16.14413383 36.54146284 16.12670898 41.67333984 C16.13242174 43.20212805 16.13938949 44.730912 16.14750671 46.25968933 C16.16535435 50.38586658 16.16428554 54.51183019 16.15856433 58.63803434 C16.15545994 62.09451196 16.16157884 65.55094928 16.16760308 69.00742114 C16.18161944 77.16806789 16.18011144 85.3286099 16.16870117 93.48925781 C16.15722565 101.8815304 16.17129263 110.27348321 16.19809765 118.66571367 C16.22031797 125.89578976 16.22687773 133.12576593 16.22102123 140.3558737 C16.21766521 144.6631732 16.21997579 148.97026783 16.23727226 153.2775383 C16.25284055 157.33086204 16.24867761 161.38371543 16.22996712 165.43702126 C16.22630823 166.91554111 16.22930992 168.3940966 16.23985291 169.87258339 C16.33338016 184.08494063 13.49377363 195.6171171 3.72265625 206.31640625 C-6.5431396 215.47560719 -17.53290855 218.23245633 -30.96875 217.69140625 C-42.21075357 216.9095238 -51.85123731 211.29619702 -59.3828125 202.99609375 C-67.50636248 192.22243045 -68.87243206 180.79565109 -68.77905273 167.70068359 C-68.78284479 166.16835537 -68.78835208 164.63603058 -68.79542542 163.10371399 C-68.80927962 158.97770321 -68.7982827 154.85211411 -68.7817142 150.72612715 C-68.76776803 146.38932511 -68.77433441 142.05254519 -68.77784729 137.71572876 C-68.78054133 130.43802163 -68.76714155 123.16048019 -68.74389648 115.8828125 C-68.71727181 107.48936004 -68.71554903 99.09618407 -68.72728485 90.70270383 C-68.7380917 82.59859736 -68.73185408 74.49459011 -68.71772957 66.39049149 C-68.71199695 62.95453142 -68.71203081 59.51864462 -68.71679497 56.08268356 C-68.72159374 52.03266645 -68.71134407 47.98294927 -68.68984032 43.93298912 C-68.68431229 42.45363692 -68.68377016 40.97425566 -68.68879318 39.49490166 C-68.72910331 25.91219743 -66.66431869 14.39679455 -57.23828125 4.0859375 C-41.32601654 -10.89858033 -17.88848539 -13.22459212 0 0 Z " fill="#000000" transform="translate(68.27734375,124.68359375)"/>
<path d="M0 0 C6.35415061 5.78853493 11.14506687 13.75038119 12.8125 22.25390625 C12.9104468 24.42755681 12.95172769 26.60397394 12.95967102 28.77981567 C12.96334771 29.43362965 12.9670244 30.08744362 12.9708125 30.76107013 C12.98181874 32.95025919 12.98568798 35.13940073 12.98950195 37.32861328 C12.99576901 38.89916636 13.00241603 40.46971796 13.00941467 42.04026794 C13.03043197 47.19740776 13.04081618 52.35454778 13.05078125 57.51171875 C13.05482994 59.28959036 13.0589469 61.06746181 13.06313133 62.8453331 C13.08217937 71.20036728 13.09641015 79.55539266 13.1047433 87.91044438 C13.11450894 97.5417944 13.14081244 107.17291419 13.18124419 116.80418313 C13.21145092 124.25658964 13.22621657 131.70893034 13.22952431 139.16139686 C13.23186996 143.60847628 13.24076673 148.05530963 13.26598549 152.50232315 C13.2893506 156.69012502 13.29346578 160.87752028 13.28322411 165.06537056 C13.28273065 166.5963419 13.28899467 168.12733383 13.30278015 169.65824318 C13.41882214 183.31717656 10.40546309 193.96005426 1.03515625 204.1953125 C-8.71234699 213.42454359 -19.82574707 215.75947691 -32.78125 215.52734375 C-42.96191849 215.08565667 -50.83588121 211.15224604 -58.1875 204.25390625 C-59.14462891 203.35865234 -59.14462891 203.35865234 -60.12109375 202.4453125 C-67.88033099 194.41909075 -71.29844199 183.91995607 -71.32794189 172.91818237 C-71.33365204 171.63984024 -71.33936218 170.36149811 -71.34524536 169.04441833 C-71.34649058 167.63491831 -71.34761571 166.22541818 -71.34863281 164.81591797 C-71.35326425 163.32565692 -71.35828934 161.83539705 -71.36367798 160.34513855 C-71.37677513 156.30143702 -71.38324202 152.25775207 -71.38768864 148.21403265 C-71.39062451 145.68401843 -71.39473034 143.15400869 -71.39919281 140.62399673 C-71.41286245 132.69771181 -71.42253096 124.77143719 -71.4263947 116.84514129 C-71.43087027 107.71531436 -71.44839706 98.58563752 -71.4773953 89.4558562 C-71.49906467 82.38642445 -71.50910183 75.31703475 -71.51043582 68.24757016 C-71.51148035 64.03135024 -71.51731253 59.81527152 -71.53525543 55.59908676 C-71.55182665 51.62799823 -71.55384813 47.65715564 -71.54511642 43.68604469 C-71.54435079 42.23612747 -71.54862562 40.78619653 -71.55857468 39.33631325 C-71.6550218 24.39322254 -68.94653813 11.25746797 -58.1875 0.25390625 C-40.20332931 -14.01186732 -18.02171437 -14.38518987 0 0 Z " fill="#000000" transform="translate(904.1875,126.74609375)"/>
<path d="M0 0 C0.69222656 -0.02900391 1.38445312 -0.05800781 2.09765625 -0.08789062 C13.35234894 -0.22065923 22.4791235 4.69872504 31.375 11.125 C33.29920838 12.47564627 35.2236955 13.82589552 37.1484375 15.17578125 C38.1187793 15.86365723 39.08912109 16.5515332 40.08886719 17.26025391 C44.68694099 20.50173398 49.34466908 23.65409086 54 26.8125 C55.83365041 28.06203483 57.66698319 29.3120359 59.5 30.5625 C60.4075 31.18125 61.315 31.8 62.25 32.4375 C66.375 35.25 66.375 35.25 70.5 38.0625 C71.86161255 38.9908667 71.86161255 38.9908667 73.25073242 39.93798828 C75.08163813 41.18634047 76.91253008 42.43471282 78.7434082 43.68310547 C84.29711447 47.46988055 89.85129431 51.25595943 95.40600586 55.04125977 C97.24706239 56.29637133 99.08772593 57.55205958 100.92797852 58.80834961 C105.39842043 61.8601273 109.87333765 64.904778 114.359375 67.93359375 C115.2150708 68.51351074 116.0707666 69.09342773 116.95239258 69.69091797 C118.5488676 70.77280074 120.14748939 71.8515261 121.7487793 72.92626953 C133.73221293 81.06520233 141.26438355 89.33700421 144.55859375 103.7578125 C146.55933681 115.33733426 144.07056399 126.15931937 137.71484375 135.96484375 C130.95731488 145.21603932 122.26165658 151.00028838 111.0625 153.75 C95.4013828 156.18450059 82.96113997 150.52693101 70.375 141.8125 C69.3324707 141.10416016 68.28994141 140.39582031 67.21582031 139.66601562 C59.63349213 134.49614046 52.12689442 129.2186818 44.65234375 123.89453125 C40.64547136 121.047787 36.56251342 118.32535132 32.4609375 115.6171875 C24.84689688 110.57061812 17.33259299 105.37258728 9.79101562 100.21875 C7.17985117 98.43533747 4.56681432 96.65470928 1.953125 94.875 C-1.18613083 92.73708596 -4.31816984 90.58918085 -7.4453125 88.43359375 C-10.50140373 86.3281844 -13.58067039 84.26427785 -16.6796875 82.22265625 C-25.09340287 76.60811926 -32.07947821 71.42408618 -37 62.3125 C-37.44730469 61.49910156 -37.89460938 60.68570313 -38.35546875 59.84765625 C-42.57787617 50.49495177 -42.55205938 38.59628024 -40.1171875 28.73828125 C-35.57507465 16.99195629 -27.67494452 8.24423683 -16.25 3 C-10.78625813 0.67103089 -5.93564644 0.07935356 0 0 Z " fill="#000000" transform="translate(407,160.6875)"/>
</svg>
